<svg width="17" height="17" viewBox="0 0 17 17" fill="none" xmlns="http://www.w3.org/2000/svg">
<mask id="mask0_1282_6891" style="mask-type:luminance" maskUnits="userSpaceOnUse" x="0" y="0" width="17" height="17">
<path d="M17 0H0V17H17V0Z" fill="white"/>
</mask>
<g mask="url(#mask0_1282_6891)">
<path d="M14.6102 12.0571C14.6097 12.1621 14.5675 12.2626 14.4927 12.3367C14.418 12.4107 14.3169 12.4523 14.2115 12.4523H2.78964C2.68423 12.4523 2.5831 12.4107 2.50839 12.3367C2.43367 12.2626 2.39145 12.1621 2.39096 12.0571V4.94303C2.39145 4.83804 2.43367 4.73752 2.50839 4.66345C2.5831 4.58939 2.68423 4.54781 2.78964 4.54781H14.2118C14.3172 4.54781 14.4183 4.58939 14.493 4.66345C14.5677 4.73752 14.6099 4.83804 14.6104 4.94303L14.6102 12.0571ZM14.2115 4.02075H2.78964C2.54366 4.02075 2.30768 4.11778 2.13334 4.29062C1.95901 4.46346 1.8605 4.69804 1.85938 4.94303V12.0571C1.86015 12.3022 1.95855 12.5369 2.13297 12.7098C2.30739 12.8827 2.54357 12.9795 2.78964 12.9791H14.2118C14.4578 12.9795 14.694 12.8827 14.8684 12.7098C15.0428 12.5369 15.1412 12.3022 15.142 12.0571V4.94303C15.1409 4.69804 15.0424 4.46346 14.8681 4.29062C14.6937 4.11778 14.4577 4.02075 14.2118 4.02075H14.2115Z" fill="#005BEA"/>
<path d="M5.84504 10.3445H3.71871C3.68185 10.341 3.64466 10.3452 3.60953 10.3568C3.5744 10.3685 3.5421 10.3873 3.51471 10.4121C3.48731 10.4369 3.46543 10.4672 3.45045 10.5009C3.43547 10.5346 3.42773 10.5711 3.42773 10.608C3.42773 10.6449 3.43547 10.6813 3.45045 10.7151C3.46543 10.7488 3.48731 10.779 3.51471 10.8038C3.5421 10.8286 3.5744 10.8475 3.60953 10.8591C3.64466 10.8708 3.68185 10.875 3.71871 10.8715H5.84504C5.8819 10.875 5.91909 10.8708 5.95422 10.8591C5.98935 10.8475 6.02165 10.8286 6.04904 10.8038C6.07644 10.779 6.09833 10.7488 6.11331 10.7151C6.12828 10.6813 6.13602 10.6449 6.13602 10.608C6.13602 10.5711 6.12828 10.5346 6.11331 10.5009C6.09833 10.4672 6.07644 10.4369 6.04904 10.4121C6.02165 10.3873 5.98935 10.3685 5.95422 10.3568C5.91909 10.3452 5.8819 10.341 5.84504 10.3445Z" fill="#005BEA"/>
<path d="M9.56379 10.3445H7.43746C7.4006 10.341 7.36341 10.3452 7.32828 10.3568C7.29315 10.3685 7.26085 10.3873 7.23346 10.4121C7.20606 10.4369 7.18418 10.4672 7.1692 10.5009C7.15422 10.5346 7.14648 10.5711 7.14648 10.608C7.14648 10.6449 7.15422 10.6813 7.1692 10.7151C7.18418 10.7488 7.20606 10.779 7.23346 10.8038C7.26085 10.8286 7.29315 10.8475 7.32828 10.8591C7.36341 10.8708 7.4006 10.875 7.43746 10.8715H9.56379C9.60065 10.875 9.63784 10.8708 9.67297 10.8591C9.7081 10.8475 9.7404 10.8286 9.76779 10.8038C9.79519 10.779 9.81708 10.7488 9.83205 10.7151C9.84703 10.6813 9.85477 10.6449 9.85477 10.608C9.85477 10.5711 9.84703 10.5346 9.83205 10.5009C9.81708 10.4672 9.79519 10.4369 9.76779 10.4121C9.7404 10.3873 9.7081 10.3685 9.67297 10.3568C9.63784 10.3452 9.60065 10.341 9.56379 10.3445Z" fill="#005BEA"/>
<path d="M13.2812 10.3445H11.1562C11.1194 10.341 11.0822 10.3452 11.047 10.3568C11.0119 10.3685 10.9796 10.3873 10.9522 10.4121C10.9248 10.4369 10.9029 10.4672 10.8879 10.5009C10.873 10.5346 10.8652 10.5711 10.8652 10.608C10.8652 10.6449 10.873 10.6813 10.8879 10.7151C10.9029 10.7488 10.9248 10.779 10.9522 10.8038C10.9796 10.8286 11.0119 10.8475 11.047 10.8591C11.0822 10.8708 11.1194 10.875 11.1562 10.8715H13.2812C13.3181 10.875 13.3553 10.8708 13.3904 10.8591C13.4255 10.8475 13.4578 10.8286 13.4852 10.8038C13.5126 10.779 13.5345 10.7488 13.5495 10.7151C13.5645 10.6813 13.5722 10.6449 13.5722 10.608C13.5722 10.5711 13.5645 10.5346 13.5495 10.5009C13.5345 10.4672 13.5126 10.4369 13.4852 10.4121C13.4578 10.3873 13.4255 10.3685 13.3904 10.3568C13.3553 10.3452 13.3181 10.341 13.2812 10.3445Z" fill="#005BEA"/>
<path d="M12.2194 7.70953C12.0626 7.70879 11.9095 7.66181 11.7795 7.57451C11.6494 7.48721 11.5483 7.36351 11.4888 7.21901C11.4293 7.07451 11.4141 6.91569 11.4452 6.76261C11.4762 6.60952 11.5521 6.46902 11.6632 6.35884C11.7744 6.24867 11.9158 6.17375 12.0696 6.14355C12.2235 6.11335 12.3829 6.12922 12.5277 6.18915C12.6725 6.24909 12.7962 6.3504 12.8833 6.48031C12.9703 6.61022 13.0168 6.7629 13.0168 6.91907C13.0158 7.12906 12.9313 7.3301 12.7819 7.47823C12.6325 7.62637 12.4302 7.70953 12.2194 7.70953ZM10.0944 7.70953C9.93758 7.70879 9.7845 7.66181 9.65447 7.57451C9.52445 7.48721 9.4233 7.36351 9.3638 7.21901C9.3043 7.07451 9.28912 6.91569 9.32016 6.76261C9.3512 6.60952 9.42708 6.46902 9.53822 6.35884C9.64936 6.24867 9.79078 6.17375 9.94464 6.14355C10.0985 6.11335 10.2579 6.12922 10.4027 6.18915C10.5475 6.24909 10.6712 6.3504 10.7583 6.48031C10.8453 6.61022 10.8918 6.7629 10.8918 6.91907C10.8908 7.12906 10.8063 7.3301 10.6569 7.47823C10.5075 7.62637 10.3052 7.70953 10.0944 7.70953ZM12.2194 5.60157C12.0125 5.60185 11.8086 5.65042 11.6239 5.74337C11.4393 5.83633 11.2791 5.97108 11.1562 6.13683C10.9909 5.9137 10.759 5.74824 10.4937 5.66403C10.2284 5.57982 9.94318 5.58115 9.67868 5.66784C9.41419 5.75453 9.18391 5.92215 9.02066 6.14682C8.85742 6.37149 8.76953 6.64175 8.76953 6.91907C8.76953 7.1964 8.85742 7.46666 9.02066 7.69133C9.18391 7.916 9.41419 8.08362 9.67868 8.17031C9.94318 8.257 10.2284 8.25833 10.4937 8.17412C10.759 8.08991 10.9909 7.92445 11.1562 7.70132C11.2903 7.88292 11.4689 8.02725 11.675 8.12053C11.881 8.2138 12.1077 8.2529 12.3332 8.2341C12.5588 8.21529 12.7757 8.13921 12.9633 8.01312C13.1509 7.88702 13.303 7.71512 13.4049 7.51384C13.5068 7.31256 13.5552 7.08862 13.5454 6.8634C13.5357 6.63819 13.4682 6.41922 13.3492 6.22741C13.2303 6.0356 13.064 5.87735 12.8662 5.76779C12.6684 5.65822 12.4457 5.60099 12.2194 5.60157Z" fill="#005BEA"/>
</g>
</svg>
